<?xml version="1.0" encoding="utf-8" ?>	<!-- Generator: Assembly 2.2 - http://assemblyapp.co -->	<svg version="1.1" xmlns="http://www.w3.org/2000/svg" xmlns:xlink="http://www.w3.org/1999/xlink" width="2048.00" height="2048.00" viewBox="0 0 2048.0 2048.0">		<g id="document" transform="matrix(1,0,0,1,1024.0,1024.0)">			<path d="M-398.635,-16.5015 C-398.635,-24.1178 -392.46,-30.2921 -384.844,-30.2921 C-377.228,-30.2921 -371.053,-24.1178 -371.053,-16.5015 C-371.053,-8.88514 -377.228,-2.71086 -384.844,-2.71086 C-392.46,-2.71086 -398.635,-8.88514 -398.635,-16.5015 Z M-1009.48,48.3956 C-1007.04,41.0947 -1002.99,33.7937 -999.744,27.304 C-994.877,20.0031 -990.821,13.5134 -985.142,7.83491 C-973.785,-4.33329 -960.806,-13.2566 -946.204,-20.5576 C-931.602,-27.8585 -915.378,-31.9146 -899.965,-32.7258 C-883.74,-34.3482 -868.327,-34.3482 -853.726,-30.2921 C-837.501,-26.2361 -824.522,-22.9912 -809.92,-18.1239 C-795.318,-13.2566 -781.528,-8.38936 -768.548,-1.89965 C-741.778,7.83491 -717.442,19.1919 -692.294,28.9265 C-667.958,38.661 -644.432,46.7732 -622.53,54.8853 C-611.173,58.9414 -600.627,61.375 -589.27,63.8086 C-593.326,61.375 -596.571,59.7526 -600.627,57.3189 C-602.249,55.6965 -603.061,54.8853 -604.683,54.8853 L-608.739,52.4517 C-610.361,50.8292 -611.173,50.018 -612.795,50.018 C-614.418,48.3956 -615.229,47.5844 -616.851,45.9619 C-626.586,37.0386 -635.509,27.304 -642.81,16.7583 C-650.111,5.40127 -654.167,-6.76693 -657.412,-19.7464 C-661.468,-33.537 -662.279,-46.5164 -662.279,-60.307 C-662.279,-64.3631 -662.279,-66.7967 -662.279,-70.0416 C-662.279,-73.2864 -662.279,-76.5313 -660.657,-79.7762 C-659.034,-87.0771 -658.223,-93.5668 -656.601,-99.2453 C-652.545,-113.036 -646.866,-125.204 -639.565,-135.75 C-629.831,-147.918 -620.096,-156.03 -607.928,-163.331 C-601.438,-167.387 -596.571,-169.821 -589.27,-172.254 C-582.78,-174.688 -575.479,-176.311 -569.801,-177.122 C-564.122,-177.933 -556.01,-178.744 -550.332,-178.744 C-543.842,-178.744 -536.541,-177.122 -530.863,-176.311 C-518.694,-172.254 -506.526,-167.387 -496.792,-158.464 C-487.057,-151.163 -478.134,-139.806 -474.078,-127.638 C-469.21,-116.281 -467.588,-101.679 -467.588,-91.1331 C-471.644,-45.7052 -500.848,-19.7464 -525.995,-9.20057 L-527.618,-9.20057 C-529.24,-9.20057 -529.24,-10.823 -529.24,-10.823 C-529.24,-13.2566 -529.24,-14.8791 -529.24,-17.3127 C-529.24,-18.9351 -529.24,-19.7464 -530.863,-21.3688 C-533.296,-19.7464 -535.73,-18.9351 -537.352,-17.3127 C-539.786,-15.6903 -543.842,-14.8791 -546.276,-13.2566 C-548.709,-11.6342 -552.765,-10.823 -555.199,-9.20057 C-556.821,-7.57815 -559.255,-7.57815 -560.066,-7.57815 C-561.689,-7.57815 -561.689,-5.95572 -562.5,-5.95572 C-563.311,-5.95572 -564.933,-5.95572 -564.933,-4.33329 C-566.556,-4.33329 -566.556,-4.33329 -567.367,-5.95572 C-568.99,-7.57815 -568.99,-8.38936 -567.367,-8.38936 L-564.933,-10.0118 L-563.311,-11.6342 C-561.689,-13.2566 -561.689,-14.0679 -560.877,-14.0679 C-559.255,-15.6903 -559.255,-16.5015 -559.255,-16.5015 C-559.255,-16.5015 -559.255,-16.5015 -559.255,-18.1239 C-565.745,-19.7464 -570.612,-20.5576 -576.29,-22.18 C-580.347,-23.8024 -582.78,-24.6136 -586.025,-27.0473 C-590.081,-29.4809 -592.515,-31.9146 -593.326,-35.9706 C-593.326,-37.593 -593.326,-37.593 -593.326,-37.593 C-593.326,-39.2155 -591.704,-40.0267 -590.892,-39.2155 C-588.459,-37.593 -586.025,-37.593 -584.403,-36.7818 C-582.78,-36.7818 -582.78,-36.7818 -582.78,-36.7818 C-584.403,-38.4043 -585.214,-39.2155 -586.836,-40.8379 C-588.459,-42.4603 -588.459,-42.4603 -588.459,-43.2715 C-590.081,-44.894 -590.081,-44.894 -590.081,-45.7052 C-591.704,-47.3276 -592.515,-48.1388 -592.515,-50.5725 C-594.137,-52.1949 -594.137,-52.1949 -594.137,-53.0061 C-595.76,-54.6285 -595.76,-54.6285 -595.76,-55.4397 C-597.382,-57.0622 -597.382,-59.4958 -597.382,-60.307 C-597.382,-62.7407 -599.004,-64.3631 -599.004,-65.1743 C-599.004,-65.9855 -599.004,-69.2304 -599.004,-70.0416 C-599.004,-70.0416 -599.004,-70.0416 -599.004,-68.4192 C-599.004,-66.7967 -597.382,-66.7967 -597.382,-65.9855 C-595.76,-64.3631 -594.948,-61.9295 -593.326,-59.4958 C-591.704,-57.0622 -588.459,-54.6285 -586.025,-52.1949 C-581.969,-49.7613 -578.724,-45.7052 -573.857,-44.894 C-564.122,-40.0267 -550.332,-38.4043 -535.73,-42.4603 C-528.429,-43.2715 -521.128,-45.7052 -514.638,-50.5725 C-508.149,-55.4397 -502.47,-61.9295 -497.603,-69.2304 C-495.169,-73.2864 -492.735,-76.5313 -491.113,-81.3986 L-490.302,-83.8322 L-488.679,-85.4546 C-488.679,-87.0771 -487.057,-87.8883 -487.057,-89.5107 C-487.057,-91.1331 -485.435,-91.9444 -485.435,-93.5668 C-485.435,-95.1892 -483.812,-96.0004 -483.812,-97.6229 C-482.19,-106.546 -482.19,-117.092 -486.246,-126.827 C-490.302,-136.561 -495.169,-146.296 -502.47,-153.597 C-509.771,-160.898 -519.506,-168.198 -531.674,-172.254 C-538.163,-174.688 -543.031,-176.311 -548.709,-176.311 C-555.199,-177.933 -560.877,-176.311 -567.367,-174.688 C-573.857,-173.066 -579.535,-172.254 -586.025,-169.821 C-592.515,-167.387 -597.382,-164.954 -603.061,-160.898 C-612.795,-154.408 -622.53,-144.673 -629.831,-134.939 C-637.131,-125.204 -641.999,-113.036 -646.055,-100.868 C-647.677,-94.378 -648.488,-88.6995 -650.111,-82.2098 C-650.111,-78.1537 -651.733,-75.7201 -651.733,-72.4752 C-651.733,-69.2304 -651.733,-65.9855 -651.733,-62.7407 C-650.111,-48.95 -649.3,-36.7818 -646.866,-24.6136 C-642.81,-12.4454 -639.565,-1.08844 -632.264,9.45734 C-625.775,19.1919 -617.662,28.9265 -608.739,36.2274 C-606.305,38.661 -603.872,40.2834 -601.438,41.0947 L-597.382,43.5283 C-595.76,45.1507 -594.948,45.1507 -593.326,45.9619 C-588.459,50.018 -583.591,50.8292 -577.102,53.2629 C-565.745,57.3189 -555.199,59.7526 -543.842,60.5638 C-532.485,62.1862 -521.939,62.1862 -512.205,60.5638 C-502.47,58.9414 -492.735,58.1301 -483.001,55.6965 C-465.965,52.4517 -449.741,43.5283 -436.762,36.2274 C-423.782,28.9265 -413.237,19.1919 -405.124,10.2685 C-391.334,-4.33329 -390.523,-11.6342 -388.9,-18.1239 C-387.278,-22.9912 -382.41,-24.6136 -379.166,-22.9912 C-375.11,-20.5576 -375.11,-15.6903 -377.543,-11.6342 C-381.599,-7.57815 -393.767,5.40127 -399.446,12.7022 C-406.747,21.6255 -418.104,31.3601 -431.083,41.0947 C-444.874,50.018 -461.909,58.1301 -481.378,64.6199 C-483.001,64.6199 -483.001,66.2423 -483.812,66.2423 C-487.868,67.8647 -491.113,68.6759 -495.169,70.2983 C-497.603,71.9208 -500.036,71.9208 -502.47,72.732 C-504.092,74.3544 -506.526,74.3544 -507.337,74.3544 C-508.96,75.9768 -511.393,75.9768 -512.205,75.9768 C-518.694,77.5993 -524.373,78.4105 -530.863,78.4105 C-534.919,80.0329 -538.163,80.0329 -542.22,80.8441 C-553.576,82.4666 -565.745,83.2778 -578.724,83.2778 C-591.704,83.2778 -604.683,81.6553 -617.662,80.8441 C-631.453,79.2217 -644.432,75.9768 -658.223,73.5432 C-672.014,71.1096 -684.993,68.6759 -697.161,68.6759 C-703.651,68.6759 -710.952,68.6759 -715.819,70.2983 C-719.875,70.2983 -722.309,71.9208 -724.743,71.9208 C-726.365,71.9208 -728.799,73.5432 -729.61,73.5432 C-731.232,73.5432 -733.666,75.1656 -734.477,75.1656 C-739.344,76.7881 -744.212,79.2217 -749.079,81.6553 C-753.946,85.7114 -758.002,88.1451 -761.247,91.3899 C-765.303,95.446 -767.737,98.6908 -770.171,103.558 C-772.604,108.425 -772.604,113.293 -772.604,118.16 L-772.604,119.782 L-772.604,121.405 C-772.604,123.027 -772.604,123.027 -772.604,123.838 C-772.604,124.65 -770.982,126.272 -770.982,127.895 C-769.359,130.328 -768.548,131.951 -768.548,134.384 C-766.114,138.44 -762.058,140.874 -759.625,143.308 C-753.135,147.364 -745.834,147.364 -740.967,147.364 C-738.533,145.741 -736.1,145.741 -734.477,144.93 C-732.855,143.308 -732.043,142.496 -732.043,140.874 C-730.421,138.44 -730.421,138.44 -730.421,138.44 C-730.421,138.44 -730.421,136.818 -730.421,136.007 C-730.421,131.139 -726.365,127.083 -721.498,127.083 C-716.63,127.083 -714.197,131.139 -712.574,136.007 C-712.574,140.063 -716.63,144.93 -721.498,149.797 C-723.931,151.42 -725.554,152.231 -728.799,153.853 C-731.232,155.476 -735.288,155.476 -737.722,155.476 C-744.212,155.476 -752.324,153.042 -759.625,148.175 C-762.058,146.552 -763.681,145.741 -764.492,143.308 C-766.926,141.685 -768.548,139.251 -769.359,138.44 C-770.982,136.007 -771.793,133.573 -773.415,131.951 C-775.038,130.328 -775.038,129.517 -775.038,127.895 C-775.038,126.272 -776.66,125.461 -776.66,123.838 C-778.283,118.971 -778.283,112.481 -778.283,106.803 C-776.66,100.313 -774.227,94.6348 -770.982,89.7675 C-766.926,84.9002 -762.058,80.0329 -756.38,75.9768 C-749.89,71.9208 -744.212,69.4871 -736.911,68.6759 C-734.477,67.0535 -732.855,67.0535 -732.043,67.0535 C-731.232,67.0535 -727.987,65.4311 -727.176,65.4311 C-723.12,65.4311 -720.686,63.8086 -717.442,63.8086 C-710.952,63.8086 -703.651,63.8086 -696.35,65.4311 C-682.559,67.0535 -669.58,70.2983 -655.789,74.3544 C-641.999,78.4105 -629.831,80.8441 -616.851,83.2778 C-603.061,85.7114 -590.892,87.3338 -578.724,87.3338 C-573.857,87.3338 -569.801,87.3338 -564.933,87.3338 C-581.969,84.9002 -601.438,80.8441 -622.53,75.9768 C-644.432,69.4871 -667.958,61.375 -692.294,52.4517 C-716.63,43.5283 -742.589,32.9825 -769.359,23.248 C-783.15,18.3807 -796.129,13.5134 -809.92,8.64612 C-823.711,3.77884 -838.312,-0.277226 -851.292,-2.71087 C-865.894,-5.14451 -879.684,-6.76693 -894.286,-5.14451 C-908.888,-3.52208 -922.679,-0.277226 -935.658,6.21248 C-948.637,12.7022 -959.994,20.8143 -969.729,30.5489 C-974.596,35.4162 -978.652,41.9059 -983.52,47.5844 L-985.142,50.018 L-986.765,52.4517 L-988.387,54.8853 L-990.009,57.3189 C-992.443,61.375 -994.065,63.8086 -994.877,67.0535 C-999.744,80.8441 -1002.18,93.8235 -1001.37,107.614 C-998.122,115.726 -993.254,127.895 -985.142,139.251 C-981.086,144.119 -976.219,148.986 -971.351,153.853 C-969.729,155.476 -968.918,156.287 -967.295,157.909 C-965.673,159.532 -965.673,159.532 -964.862,159.532 L-962.428,161.154 C-959.994,163.588 -957.561,165.21 -955.127,166.022 C-943.77,172.511 -931.602,173.322 -919.434,172.511 C-907.266,171.7 -895.909,167.644 -886.174,161.154 C-881.307,157.098 -877.251,154.665 -874.006,149.797 C-871.572,147.364 -869.95,144.93 -869.139,143.308 L-867.516,141.685 L-865.894,139.251 L-864.271,137.629 L-864.271,136.007 C-864.271,134.384 -862.649,134.384 -862.649,133.573 C-858.593,123.838 -857.782,114.104 -858.593,104.369 C-861.026,94.6348 -865.083,85.7114 -869.95,80.0329 C-872.383,75.9768 -876.439,73.5432 -878.873,72.732 C-882.929,70.2983 -886.174,68.6759 -888.608,67.8647 C-895.909,65.4311 -903.21,63.8086 -909.699,65.4311 C-921.867,67.0535 -930.791,71.9208 -936.469,75.1656 C-938.903,77.5993 -941.337,79.2217 -942.959,80.0329 C-944.581,80.8441 -945.393,82.4666 -947.015,81.6553 C-948.637,80.0329 -945.393,76.7881 -945.393,75.1656 C-943.77,73.5432 -943.77,72.732 -943.77,71.1096 C-942.148,68.6759 -941.337,64.6199 -938.903,62.1862 C-936.469,59.7526 -934.847,57.3189 -932.413,54.8853 C-929.98,53.2629 -928.357,50.8292 -925.924,50.8292 C-927.546,50.8292 -928.357,49.2068 -928.357,49.2068 C-930.791,49.2068 -932.413,49.2068 -933.224,49.2068 L-934.847,49.2068 C-936.469,47.5844 -936.469,47.5844 -934.847,47.5844 C-932.413,45.1507 -929.98,43.5283 -927.546,43.5283 C-925.112,41.9059 -921.056,41.9059 -918.623,41.9059 C-913.755,41.9059 -908.888,43.5283 -904.021,44.3395 C-904.021,42.7171 -904.021,42.7171 -904.021,42.7171 C-904.021,41.0947 -904.021,40.2834 -905.643,40.2834 C-905.643,38.661 -907.266,37.8498 -907.266,37.8498 L-908.888,36.2274 L-910.51,34.605 L-910.51,32.9825 C-910.51,31.3601 -908.888,31.3601 -908.888,31.3601 C-904.832,33.7937 -901.587,35.4162 -897.531,37.8498 C-895.097,39.4722 -893.475,40.2834 -892.664,41.9059 C-891.041,43.5283 -890.23,43.5283 -890.23,44.3395 C-888.608,45.9619 -888.608,45.9619 -887.796,45.9619 C-886.174,44.3395 -886.174,43.5283 -886.174,41.9059 C-884.552,40.2834 -884.552,37.8498 -884.552,37.0386 C-884.552,35.4162 -882.929,35.4162 -882.929,37.0386 C-878.873,39.4722 -876.439,41.9059 -874.006,45.9619 C-871.572,50.018 -869.139,52.4517 -866.705,55.6965 C-861.838,62.9974 -859.404,70.2983 -856.97,77.5993 C-854.537,84.9002 -852.103,93.8235 -850.481,101.124 C-848.858,105.181 -848.858,110.048 -850.481,113.293 C-850.481,114.915 -850.481,114.915 -850.481,115.726 C-852.103,120.594 -852.103,125.461 -854.537,131.951 C-854.537,133.573 -856.159,133.573 -856.159,134.384 L-856.159,136.007 L-856.159,137.629 L-857.782,139.251 L-859.404,141.685 L-861.026,144.119 C-863.46,146.552 -865.083,148.986 -867.516,151.42 C-871.572,156.287 -876.439,161.154 -882.118,165.21 C-893.475,172.511 -905.643,177.379 -920.245,179.812 C-934.847,181.435 -949.449,179.812 -963.239,173.322 C-967.295,171.7 -969.729,169.266 -972.974,166.833 L-975.408,165.21 C-977.03,163.588 -977.03,163.588 -977.841,162.777 C-979.464,161.154 -981.897,160.343 -982.708,158.721 C-989.198,153.853 -994.065,148.986 -998.933,141.685 C-1003.8,135.195 -1007.86,127.895 -1010.29,122.216 C-1012.72,114.915 -1015.16,107.614 -1016.78,98.6908 C-1018.4,79.2217 -1015.97,62.9974 -1009.48,48.3956 Z " fill="#000000" fill-opacity="1.00" />			<path d="M398.635,-16.5015 C398.635,-24.1178 392.46,-30.2921 384.844,-30.2921 C377.228,-30.2921 371.053,-24.1178 371.053,-16.5015 C371.053,-8.88514 377.228,-2.71086 384.844,-2.71086 C392.46,-2.71086 398.635,-8.88514 398.635,-16.5015 Z M1009.48,48.3956 C1007.04,41.0947 1002.99,33.7937 999.744,27.304 C994.877,20.0031 990.821,13.5134 985.142,7.83491 C973.785,-4.33329 960.806,-13.2566 946.204,-20.5576 C931.602,-27.8585 915.378,-31.9146 899.965,-32.7258 C883.74,-34.3482 868.327,-34.3482 853.725,-30.2921 C837.501,-26.2361 824.522,-22.9912 809.92,-18.1239 C795.318,-13.2566 781.527,-8.38936 768.548,-1.89965 C741.778,7.83491 717.442,19.1919 692.294,28.9265 C667.958,38.661 644.432,46.7732 622.53,54.8853 C611.173,58.9414 600.627,61.375 589.27,63.8086 C593.326,61.375 596.571,59.7526 600.627,57.3189 C602.249,55.6965 603.06,54.8853 604.683,54.8853 L608.739,52.4517 C610.361,50.8292 611.173,50.018 612.795,50.018 C614.417,48.3956 615.229,47.5844 616.851,45.9619 C626.586,37.0386 635.509,27.304 642.81,16.7583 C650.111,5.40127 654.167,-6.76693 657.412,-19.7464 C661.468,-33.537 662.279,-46.5164 662.279,-60.307 C662.279,-64.3631 662.279,-66.7967 662.279,-70.0416 C662.279,-73.2864 662.279,-76.5313 660.657,-79.7762 C659.034,-87.0771 658.223,-93.5668 656.601,-99.2453 C652.545,-113.036 646.866,-125.204 639.565,-135.75 C629.831,-147.918 620.096,-156.03 607.928,-163.331 C601.438,-167.387 596.571,-169.821 589.27,-172.254 C582.78,-174.688 575.479,-176.311 569.801,-177.122 C564.122,-177.933 556.01,-178.744 550.332,-178.744 C543.842,-178.744 536.541,-177.122 530.862,-176.311 C518.694,-172.254 506.526,-167.387 496.792,-158.464 C487.057,-151.163 478.134,-139.806 474.078,-127.638 C469.21,-116.281 467.588,-101.679 467.588,-91.1331 C471.644,-45.7052 500.848,-19.7464 525.995,-9.20057 L527.618,-9.20057 C529.24,-9.20057 529.24,-10.823 529.24,-10.823 C529.24,-13.2566 529.24,-14.8791 529.24,-17.3127 C529.24,-18.9351 529.24,-19.7464 530.862,-21.3688 C533.296,-19.7464 535.73,-18.9351 537.352,-17.3127 C539.786,-15.6903 543.842,-14.8791 546.276,-13.2566 C548.709,-11.6342 552.765,-10.823 555.199,-9.20057 C556.821,-7.57815 559.255,-7.57815 560.066,-7.57815 C561.689,-7.57815 561.689,-5.95572 562.5,-5.95572 C563.311,-5.95572 564.933,-5.95572 564.933,-4.33329 C566.556,-4.33329 566.556,-4.33329 567.367,-5.95572 C568.99,-7.57815 568.99,-8.38936 567.367,-8.38936 L564.933,-10.0118 L563.311,-11.6342 C561.689,-13.2566 561.689,-14.0679 560.877,-14.0679 C559.255,-15.6903 559.255,-16.5015 559.255,-16.5015 C559.255,-16.5015 559.255,-16.5015 559.255,-18.1239 C565.745,-19.7464 570.612,-20.5576 576.29,-22.18 C580.347,-23.8024 582.78,-24.6136 586.025,-27.0473 C590.081,-29.4809 592.515,-31.9146 593.326,-35.9706 C593.326,-37.593 593.326,-37.593 593.326,-37.593 C593.326,-39.2155 591.703,-40.0267 590.892,-39.2155 C588.459,-37.593 586.025,-37.593 584.403,-36.7818 C582.78,-36.7818 582.78,-36.7818 582.78,-36.7818 C584.403,-38.4043 585.214,-39.2155 586.836,-40.8379 C588.459,-42.4603 588.459,-42.4603 588.459,-43.2715 C590.081,-44.894 590.081,-44.894 590.081,-45.7052 C591.703,-47.3276 592.515,-48.1388 592.515,-50.5725 C594.137,-52.1949 594.137,-52.1949 594.137,-53.0061 C595.76,-54.6285 595.76,-54.6285 595.76,-55.4397 C597.382,-57.0622 597.382,-59.4958 597.382,-60.307 C597.382,-62.7407 599.004,-64.3631 599.004,-65.1743 C599.004,-65.9855 599.004,-69.2304 599.004,-70.0416 C599.004,-70.0416 599.004,-70.0416 599.004,-68.4192 C599.004,-66.7967 597.382,-66.7967 597.382,-65.9855 C595.76,-64.3631 594.948,-61.9295 593.326,-59.4958 C591.703,-57.0622 588.459,-54.6285 586.025,-52.1949 C581.969,-49.7613 578.724,-45.7052 573.857,-44.894 C564.122,-40.0267 550.332,-38.4043 535.73,-42.4603 C528.429,-43.2715 521.128,-45.7052 514.638,-50.5725 C508.149,-55.4397 502.47,-61.9295 497.603,-69.2304 C495.169,-73.2864 492.735,-76.5313 491.113,-81.3986 L490.302,-83.8322 L488.679,-85.4546 C488.679,-87.0771 487.057,-87.8883 487.057,-89.5107 C487.057,-91.1331 485.435,-91.9444 485.435,-93.5668 C485.435,-95.1892 483.812,-96.0004 483.812,-97.6229 C482.19,-106.546 482.19,-117.092 486.246,-126.827 C490.302,-136.561 495.169,-146.296 502.47,-153.597 C509.771,-160.898 519.505,-168.198 531.674,-172.254 C538.163,-174.688 543.031,-176.311 548.709,-176.311 C555.199,-177.933 560.877,-176.311 567.367,-174.688 C573.857,-173.066 579.535,-172.254 586.025,-169.821 C592.515,-167.387 597.382,-164.954 603.06,-160.898 C612.795,-154.408 622.53,-144.673 629.831,-134.939 C637.131,-125.204 641.999,-113.036 646.055,-100.868 C647.677,-94.378 648.488,-88.6995 650.111,-82.2098 C650.111,-78.1537 651.733,-75.7201 651.733,-72.4752 C651.733,-69.2304 651.733,-65.9855 651.733,-62.7407 C650.111,-48.95 649.3,-36.7818 646.866,-24.6136 C642.81,-12.4454 639.565,-1.08844 632.264,9.45734 C625.774,19.1919 617.662,28.9265 608.739,36.2274 C606.305,38.661 603.872,40.2834 601.438,41.0947 L597.382,43.5283 C595.76,45.1507 594.948,45.1507 593.326,45.9619 C588.459,50.018 583.591,50.8292 577.102,53.2629 C565.745,57.3189 555.199,59.7526 543.842,60.5638 C532.485,62.1862 521.939,62.1862 512.205,60.5638 C502.47,58.9414 492.735,58.1301 483.001,55.6965 C465.965,52.4517 449.741,43.5283 436.762,36.2274 C423.782,28.9265 413.237,19.1919 405.124,10.2685 C391.334,-4.33329 390.523,-11.6342 388.9,-18.1239 C387.278,-22.9912 382.41,-24.6136 379.166,-22.9912 C375.109,-20.5576 375.109,-15.6903 377.543,-11.6342 C381.599,-7.57815 393.767,5.40127 399.446,12.7022 C406.747,21.6255 418.104,31.3601 431.083,41.0947 C444.874,50.018 461.909,58.1301 481.378,64.6199 C483.001,64.6199 483.001,66.2423 483.812,66.2423 C487.868,67.8647 491.113,68.6759 495.169,70.2983 C497.603,71.9208 500.036,71.9208 502.47,72.732 C504.092,74.3544 506.526,74.3544 507.337,74.3544 C508.96,75.9768 511.393,75.9768 512.205,75.9768 C518.694,77.5993 524.373,78.4105 530.862,78.4105 C534.919,80.0329 538.163,80.0329 542.219,80.8441 C553.576,82.4666 565.745,83.2778 578.724,83.2778 C591.703,83.2778 604.683,81.6553 617.662,80.8441 C631.453,79.2217 644.432,75.9768 658.223,73.5432 C672.014,71.1096 684.993,68.6759 697.161,68.6759 C703.651,68.6759 710.952,68.6759 715.819,70.2983 C719.875,70.2983 722.309,71.9208 724.743,71.9208 C726.365,71.9208 728.799,73.5432 729.61,73.5432 C731.232,73.5432 733.666,75.1656 734.477,75.1656 C739.344,76.7881 744.212,79.2217 749.079,81.6553 C753.946,85.7114 758.002,88.1451 761.247,91.3899 C765.303,95.446 767.737,98.6908 770.17,103.558 C772.604,108.425 772.604,113.293 772.604,118.16 L772.604,119.782 L772.604,121.405 C772.604,123.027 772.604,123.027 772.604,123.838 C772.604,124.65 770.982,126.272 770.982,127.895 C769.359,130.328 768.548,131.951 768.548,134.384 C766.114,138.44 762.058,140.874 759.625,143.308 C753.135,147.364 745.834,147.364 740.967,147.364 C738.533,145.741 736.1,145.741 734.477,144.93 C732.855,143.308 732.043,142.496 732.043,140.874 C730.421,138.44 730.421,138.44 730.421,138.44 C730.421,138.44 730.421,136.818 730.421,136.007 C730.421,131.139 726.365,127.083 721.498,127.083 C716.63,127.083 714.197,131.139 712.574,136.007 C712.574,140.063 716.63,144.93 721.498,149.797 C723.931,151.42 725.554,152.231 728.799,153.853 C731.232,155.476 735.288,155.476 737.722,155.476 C744.212,155.476 752.324,153.042 759.625,148.175 C762.058,146.552 763.681,145.741 764.492,143.308 C766.926,141.685 768.548,139.251 769.359,138.44 C770.982,136.007 771.793,133.573 773.415,131.951 C775.038,130.328 775.038,129.517 775.038,127.895 C775.038,126.272 776.66,125.461 776.66,123.838 C778.283,118.971 778.283,112.481 778.283,106.803 C776.66,100.313 774.227,94.6348 770.982,89.7675 C766.926,84.9002 762.058,80.0329 756.38,75.9768 C749.89,71.9208 744.212,69.4871 736.911,68.6759 C734.477,67.0535 732.855,67.0535 732.043,67.0535 C731.232,67.0535 727.987,65.4311 727.176,65.4311 C723.12,65.4311 720.686,63.8086 717.442,63.8086 C710.952,63.8086 703.651,63.8086 696.35,65.4311 C682.559,67.0535 669.58,70.2983 655.789,74.3544 C641.999,78.4105 629.831,80.8441 616.851,83.2778 C603.06,85.7114 590.892,87.3338 578.724,87.3338 C573.857,87.3338 569.801,87.3338 564.933,87.3338 C581.969,84.9002 601.438,80.8441 622.53,75.9768 C644.432,69.4871 667.958,61.375 692.294,52.4517 C716.63,43.5283 742.589,32.9825 769.359,23.248 C783.15,18.3807 796.129,13.5134 809.92,8.64612 C823.711,3.77884 838.312,-0.277226 851.292,-2.71087 C865.894,-5.14451 879.684,-6.76693 894.286,-5.14451 C908.888,-3.52208 922.679,-0.277226 935.658,6.21248 C948.637,12.7022 959.994,20.8143 969.729,30.5489 C974.596,35.4162 978.652,41.9059 983.52,47.5844 L985.142,50.018 L986.764,52.4517 L988.387,54.8853 L990.009,57.3189 C992.443,61.375 994.065,63.8086 994.877,67.0535 C999.744,80.8441 1002.18,93.8235 1001.37,107.614 C998.121,115.726 993.254,127.895 985.142,139.251 C981.086,144.119 976.219,148.986 971.351,153.853 C969.729,155.476 968.918,156.287 967.295,157.909 C965.673,159.532 965.673,159.532 964.862,159.532 L962.428,161.154 C959.994,163.588 957.561,165.21 955.127,166.022 C943.77,172.511 931.602,173.322 919.434,172.511 C907.266,171.7 895.909,167.644 886.174,161.154 C881.307,157.098 877.251,154.665 874.006,149.797 C871.572,147.364 869.95,144.93 869.139,143.308 L867.516,141.685 L865.894,139.251 L864.271,137.629 L864.271,136.007 C864.271,134.384 862.649,134.384 862.649,133.573 C858.593,123.838 857.782,114.104 858.593,104.369 C861.026,94.6348 865.082,85.7114 869.95,80.0329 C872.383,75.9768 876.439,73.5432 878.873,72.732 C882.929,70.2983 886.174,68.6759 888.608,67.8647 C895.909,65.4311 903.209,63.8086 909.699,65.4311 C921.867,67.0535 930.791,71.9208 936.469,75.1656 C938.903,77.5993 941.337,79.2217 942.959,80.0329 C944.581,80.8441 945.393,82.4666 947.015,81.6553 C948.637,80.0329 945.393,76.7881 945.393,75.1656 C943.77,73.5432 943.77,72.732 943.77,71.1096 C942.148,68.6759 941.337,64.6199 938.903,62.1862 C936.469,59.7526 934.847,57.3189 932.413,54.8853 C929.98,53.2629 928.357,50.8292 925.923,50.8292 C927.546,50.8292 928.357,49.2068 928.357,49.2068 C930.791,49.2068 932.413,49.2068 933.224,49.2068 L934.847,49.2068 C936.469,47.5844 936.469,47.5844 934.847,47.5844 C932.413,45.1507 929.98,43.5283 927.546,43.5283 C925.112,41.9059 921.056,41.9059 918.623,41.9059 C913.755,41.9059 908.888,43.5283 904.021,44.3395 C904.021,42.7171 904.021,42.7171 904.021,42.7171 C904.021,41.0947 904.021,40.2834 905.643,40.2834 C905.643,38.661 907.266,37.8498 907.266,37.8498 L908.888,36.2274 L910.51,34.605 L910.51,32.9825 C910.51,31.3601 908.888,31.3601 908.888,31.3601 C904.832,33.7937 901.587,35.4162 897.531,37.8498 C895.097,39.4722 893.475,40.2834 892.664,41.9059 C891.041,43.5283 890.23,43.5283 890.23,44.3395 C888.608,45.9619 888.608,45.9619 887.796,45.9619 C886.174,44.3395 886.174,43.5283 886.174,41.9059 C884.552,40.2834 884.552,37.8498 884.552,37.0386 C884.552,35.4162 882.929,35.4162 882.929,37.0386 C878.873,39.4722 876.439,41.9059 874.006,45.9619 C871.572,50.018 869.139,52.4517 866.705,55.6965 C861.838,62.9974 859.404,70.2983 856.97,77.5993 C854.537,84.9002 852.103,93.8235 850.481,101.124 C848.858,105.181 848.858,110.048 850.481,113.293 C850.481,114.915 850.481,114.915 850.481,115.726 C852.103,120.594 852.103,125.461 854.537,131.951 C854.537,133.573 856.159,133.573 856.159,134.384 L856.159,136.007 L856.159,137.629 L857.782,139.251 L859.404,141.685 L861.026,144.119 C863.46,146.552 865.082,148.986 867.516,151.42 C871.572,156.287 876.439,161.154 882.118,165.21 C893.475,172.511 905.643,177.379 920.245,179.812 C934.847,181.435 949.449,179.812 963.239,173.322 C967.295,171.7 969.729,169.266 972.974,166.833 L975.407,165.21 C977.03,163.588 977.03,163.588 977.841,162.777 C979.464,161.154 981.897,160.343 982.708,158.721 C989.198,153.853 994.065,148.986 998.933,141.685 C1003.8,135.195 1007.86,127.895 1010.29,122.216 C1012.72,114.915 1015.16,107.614 1016.78,98.6908 C1018.4,79.2217 1015.97,62.9974 1009.48,48.3956 Z " fill="#000000" fill-opacity="1.00" />		</g>	</svg>