<?xml version="1.0" encoding="UTF-8" standalone="no"?>
<!-- Generator: Assembly 2.2 - http://assemblyapp.co -->

<svg
   xmlns:dc="http://purl.org/dc/elements/1.1/"
   xmlns:cc="http://creativecommons.org/ns#"
   xmlns:rdf="http://www.w3.org/1999/02/22-rdf-syntax-ns#"
   xmlns:svg="http://www.w3.org/2000/svg"
   xmlns="http://www.w3.org/2000/svg"
   xmlns:sodipodi="http://sodipodi.sourceforge.net/DTD/sodipodi-0.dtd"
   xmlns:inkscape="http://www.inkscape.org/namespaces/inkscape"
   version="1.1"
   width="2048.00"
   height="2048.00"
   viewBox="0 0 2048.0 2048.0"
   id="svg15"
   sodipodi:docname="vignette.svg"
   inkscape:version="0.92.4 5da689c313, 2019-01-14">
  <metadata
     id="metadata21">
    <rdf:RDF>
      <cc:Work
         rdf:about="">
        <dc:format>image/svg+xml</dc:format>
        <dc:type
           rdf:resource="http://purl.org/dc/dcmitype/StillImage" />
      </cc:Work>
    </rdf:RDF>
  </metadata>
  <defs
     id="defs19" />
  <sodipodi:namedview
     pagecolor="#ffffff"
     bordercolor="#666666"
     borderopacity="1"
     objecttolerance="10"
     gridtolerance="10"
     guidetolerance="10"
     inkscape:pageopacity="0"
     inkscape:pageshadow="2"
     inkscape:window-width="1920"
     inkscape:window-height="1048"
     id="namedview17"
     showgrid="false"
     inkscape:zoom="1"
     inkscape:cx="486.68896"
     inkscape:cy="881.61345"
     inkscape:window-x="0"
     inkscape:window-y="32"
     inkscape:window-maximized="1"
     inkscape:current-layer="svg15" />
  <g
     id="document"
     transform="matrix(0.20233354,0,0,0.20233354,506.56109,1277.8969)"
     inkscape:export-xdpi="96"
     inkscape:export-ydpi="96">
    <path
       d="m -398.635,-16.5015 c 0,-7.6163 6.175,-13.7906 13.791,-13.7906 7.616,0 13.791,6.1743 13.791,13.7906 0,7.61636 -6.175,13.79064 -13.791,13.79064 -7.616,0 -13.791,-6.17428 -13.791,-13.79064 z m -610.845,64.8971 c 2.44,-7.3009 6.49,-14.6019 9.736,-21.0916 4.867,-7.3009 8.923,-13.7906 14.602,-19.46909 11.357,-12.1682 24.336,-21.09151 38.938,-28.39251 14.602,-7.3009 30.826,-11.357 46.239,-12.1682 16.225,-1.6224 31.638,-1.6224 46.239,2.4337 16.225,4.056 29.204,7.3009 43.806,12.1682 14.602,4.8673 28.392,9.73454 41.372,16.22425 26.77,9.73456 51.106,21.09155 76.254,30.82615 24.336,9.7345 47.862,17.8467 69.764,25.9588 11.357,4.0561 21.903,6.4897 33.26,8.9233 -4.056,-2.4336 -7.301,-4.056 -11.357,-6.4897 -1.622,-1.6224 -2.434,-2.4336 -4.056,-2.4336 l -4.056,-2.4336 c -1.622,-1.6225 -2.434,-2.4337 -4.056,-2.4337 -1.623,-1.6224 -2.434,-2.4336 -4.056,-4.0561 -9.735,-8.9233 -18.658,-18.6579 -25.959,-29.2036 -7.301,-11.35703 -11.357,-23.52523 -14.602,-36.5047 -4.056,-13.7906 -4.867,-26.77 -4.867,-40.5606 0,-4.0561 0,-6.4897 0,-9.7346 0,-3.2448 0,-6.4897 1.622,-9.7346 1.623,-7.3009 2.434,-13.7906 4.056,-19.4691 4.056,-13.7907 9.735,-25.9587 17.036,-36.5047 9.734,-12.168 19.469,-20.28 31.637,-27.581 6.49,-4.056 11.357,-6.49 18.658,-8.923 6.49,-2.434 13.791,-4.057 19.469,-4.868 5.679,-0.811 13.791,-1.622 19.469,-1.622 6.49,0 13.791,1.622 19.469,2.433 12.169,4.057 24.337,8.924 34.071,17.847 9.735,7.301 18.658,18.658 22.714,30.826 4.868,11.357 6.49,25.959 6.49,36.5049 -4.056,45.4279 -33.26,71.3867 -58.407,81.93253 h -1.623 c -1.622,0 -1.622,-1.62243 -1.622,-1.62243 0,-2.4336 0,-4.0561 0,-6.4897 0,-1.6224 0,-2.4337 -1.623,-4.0561 -2.433,1.6224 -4.867,2.4337 -6.489,4.0561 -2.434,1.6224 -6.49,2.4336 -8.924,4.0561 -2.433,1.6224 -6.489,2.4336 -8.923,4.05603 -1.622,1.62242 -4.056,1.62242 -4.867,1.62242 -1.623,0 -1.623,1.62243 -2.434,1.62243 -0.811,0 -2.433,0 -2.433,1.62243 -1.623,0 -1.623,0 -2.434,-1.62243 -1.623,-1.62243 -1.623,-2.43364 0,-2.43364 l 2.434,-1.62244 1.622,-1.6224 c 1.622,-1.6224 1.622,-2.4337 2.434,-2.4337 1.622,-1.6224 1.622,-2.4336 1.622,-2.4336 0,0 0,0 0,-1.6224 -6.49,-1.6225 -11.357,-2.4337 -17.035,-4.0561 -4.057,-1.6224 -6.49,-2.4336 -9.735,-4.8673 -4.056,-2.4336 -6.49,-4.8673 -7.301,-8.9233 0,-1.6224 0,-1.6224 0,-1.6224 0,-1.6225 1.622,-2.4337 2.434,-1.6225 2.433,1.6225 4.867,1.6225 6.489,2.4337 1.623,0 1.623,0 1.623,0 -1.623,-1.6225 -2.434,-2.4337 -4.056,-4.0561 -1.623,-1.6224 -1.623,-1.6224 -1.623,-2.4336 -1.622,-1.6225 -1.622,-1.6225 -1.622,-2.4337 -1.623,-1.6224 -2.434,-2.4336 -2.434,-4.8673 -1.622,-1.6224 -1.622,-1.6224 -1.622,-2.4336 -1.623,-1.6224 -1.623,-1.6224 -1.623,-2.4336 -1.622,-1.6225 -1.622,-4.0561 -1.622,-4.8673 0,-2.4337 -1.622,-4.0561 -1.622,-4.8673 0,-0.8112 0,-4.0561 0,-4.8673 0,0 0,0 0,1.6224 0,1.6225 1.622,1.6225 1.622,2.4337 1.622,1.6224 2.434,4.056 4.056,6.4897 1.622,2.4336 4.867,4.8673 7.301,7.3009 4.056,2.4336 7.301,6.4897 12.168,7.3009 9.735,4.8673 23.525,6.4897 38.127,2.4337 7.301,-0.8112 14.602,-3.2449 21.092,-8.1122 6.489,-4.8672 12.168,-11.357 17.035,-18.6579 2.434,-4.056 4.868,-7.3009 6.49,-12.1682 l 0.811,-2.4336 1.623,-1.6224 c 0,-1.6225 1.622,-2.4337 1.622,-4.0561 0,-1.6224 1.622,-2.4337 1.622,-4.0561 0,-1.6224 1.623,-2.4336 1.623,-4.0561 1.622,-8.9231 1.622,-19.4691 -2.434,-29.2041 -4.056,-9.734 -8.923,-19.469 -16.224,-26.77 -7.301,-7.301 -17.036,-14.601 -29.204,-18.657 -6.489,-2.434 -11.357,-4.057 -17.035,-4.057 -6.49,-1.622 -12.168,0 -18.658,1.623 -6.49,1.622 -12.168,2.434 -18.658,4.867 -6.49,2.434 -11.357,4.867 -17.036,8.923 -9.734,6.49 -19.469,16.225 -26.77,25.959 -7.3,9.735 -12.168,21.903 -16.224,34.071 -1.622,6.49 -2.433,12.1685 -4.056,18.6582 0,4.0561 -1.622,6.4897 -1.622,9.7346 0,3.2448 0,6.4897 0,9.7345 1.622,13.7907 2.433,25.9589 4.867,38.1271 4.056,12.1682 7.301,23.52516 14.602,34.07094 6.489,9.73456 14.602,19.46916 23.525,26.77006 2.434,2.4336 4.867,4.056 7.301,4.8673 l 4.056,2.4336 c 1.622,1.6224 2.434,1.6224 4.056,2.4336 4.867,4.0561 9.735,4.8673 16.224,7.301 11.357,4.056 21.903,6.4897 33.26,7.3009 11.357,1.6224 21.903,1.6224 31.637,0 9.735,-1.6224 19.47,-2.4337 29.204,-4.8673 17.036,-3.2448 33.26,-12.1682 46.239,-19.4691 12.98,-7.3009 23.525,-17.0355 31.638,-25.9589 13.79,-14.60179 14.601,-21.9027 16.224,-28.3924 1.622,-4.8673 6.49,-6.4897 9.734,-4.8673 4.056,2.4336 4.056,7.3009 1.623,11.357 -4.056,4.05605 -16.224,17.03547 -21.903,24.3364 -7.301,8.9233 -18.658,18.6579 -31.637,28.3925 -13.791,8.9233 -30.826,17.0354 -50.295,23.5252 -1.623,0 -1.623,1.6224 -2.434,1.6224 -4.056,1.6224 -7.301,2.4336 -11.357,4.056 -2.434,1.6225 -4.867,1.6225 -7.301,2.4337 -1.622,1.6224 -4.056,1.6224 -4.867,1.6224 -1.623,1.6224 -4.056,1.6224 -4.868,1.6224 -6.489,1.6225 -12.168,2.4337 -18.658,2.4337 -4.056,1.6224 -7.3,1.6224 -11.357,2.4336 -11.356,1.6225 -23.525,2.4337 -36.504,2.4337 -12.98,0 -25.959,-1.6225 -38.938,-2.4337 -13.791,-1.6224 -26.77,-4.8673 -40.561,-7.3009 -13.791,-2.4336 -26.77,-4.8673 -38.938,-4.8673 -6.49,0 -13.791,0 -18.658,1.6224 -4.056,0 -6.49,1.6225 -8.924,1.6225 -1.622,0 -4.056,1.6224 -4.867,1.6224 -1.622,0 -4.056,1.6224 -4.867,1.6224 -4.867,1.6225 -9.735,4.0561 -14.602,6.4897 -4.867,4.0561 -8.923,6.4898 -12.168,9.7346 -4.056,4.0561 -6.49,7.3009 -8.924,12.1681 -2.433,4.867 -2.433,9.735 -2.433,14.602 v 1.622 1.623 c 0,1.622 0,1.622 0,2.433 0,0.812 1.622,2.434 1.622,4.057 1.623,2.433 2.434,4.056 2.434,6.489 2.434,4.056 6.49,6.49 8.923,8.924 6.49,4.056 13.791,4.056 18.658,4.056 2.434,-1.623 4.867,-1.623 6.49,-2.434 1.622,-1.622 2.434,-2.434 2.434,-4.056 1.622,-2.434 1.622,-2.434 1.622,-2.434 0,0 0,-1.622 0,-2.433 0,-4.868 4.056,-8.924 8.923,-8.924 4.868,0 7.301,4.056 8.924,8.924 0,4.056 -4.056,8.923 -8.924,13.79 -2.433,1.623 -4.056,2.434 -7.301,4.056 -2.433,1.623 -6.489,1.623 -8.923,1.623 -6.49,0 -14.602,-2.434 -21.903,-7.301 -2.433,-1.623 -4.056,-2.434 -4.867,-4.867 -2.434,-1.623 -4.056,-4.057 -4.867,-4.868 -1.623,-2.433 -2.434,-4.867 -4.056,-6.489 -1.623,-1.623 -1.623,-2.434 -1.623,-4.056 0,-1.623 -1.622,-2.434 -1.622,-4.057 -1.623,-4.867 -1.623,-11.357 -1.623,-17.035 1.623,-6.49 4.056,-12.1682 7.301,-17.0355 4.056,-4.8673 8.924,-9.7346 14.602,-13.7907 6.49,-4.056 12.168,-6.4897 19.469,-7.3009 2.434,-1.6224 4.056,-1.6224 4.868,-1.6224 0.811,0 4.056,-1.6224 4.867,-1.6224 4.056,0 6.49,-1.6225 9.734,-1.6225 6.49,0 13.791,0 21.092,1.6225 13.791,1.6224 26.77,4.8672 40.561,8.9233 13.79,4.0561 25.958,6.4897 38.938,8.9234 13.79,2.4336 25.959,4.056 38.127,4.056 4.867,0 8.923,0 13.791,0 -17.036,-2.4336 -36.505,-6.4897 -57.597,-11.357 -21.902,-6.4897 -45.428,-14.6018 -69.764,-23.5251 -24.336,-8.9234 -50.295,-19.4692 -77.065,-29.2037 -13.791,-4.8673 -26.77,-9.7346 -40.561,-14.60188 -13.791,-4.86728 -28.392,-8.923346 -41.372,-11.35699 -14.602,-2.43364 -28.392,-4.05606 -42.994,-2.43364 -14.602,1.62243 -28.393,4.867284 -41.372,11.35699 -12.979,6.48972 -24.336,14.60182 -34.071,24.33642 -4.867,4.8673 -8.923,11.357 -13.791,17.0355 l -1.622,2.4336 -1.623,2.4337 -1.622,2.4336 -1.622,2.4336 c -2.434,4.0561 -4.056,6.4897 -4.868,9.7346 -4.867,13.7906 -7.303,26.77 -6.493,40.5605 3.248,8.112 8.116,20.281 16.228,31.637 4.056,4.868 8.923,9.735 13.791,14.602 1.622,1.623 2.433,2.434 4.056,4.056 1.622,1.623 1.622,1.623 2.433,1.623 l 2.434,1.622 c 2.434,2.434 4.867,4.056 7.301,4.868 11.357,6.489 23.525,7.3 35.693,6.489 12.168,-0.811 23.525,-4.867 33.26,-11.357 4.867,-4.056 8.923,-6.489 12.168,-11.357 2.434,-2.433 4.056,-4.867 4.867,-6.489 l 1.623,-1.623 1.622,-2.434 1.623,-1.622 v -1.622 c 0,-1.623 1.622,-1.623 1.622,-2.434 4.056,-9.735 4.867,-19.469 4.056,-29.204 -2.433,-9.7342 -6.49,-18.6576 -11.357,-24.3361 -2.433,-4.0561 -6.489,-6.4897 -8.923,-7.3009 -4.056,-2.4337 -7.301,-4.0561 -9.735,-4.8673 -7.301,-2.4336 -14.602,-4.0561 -21.091,-2.4336 -12.168,1.6224 -21.092,6.4897 -26.77,9.7345 -2.434,2.4337 -4.868,4.0561 -6.49,4.8673 -1.622,0.8112 -2.434,2.4337 -4.056,1.6224 -1.622,-1.6224 1.622,-4.8672 1.622,-6.4897 1.623,-1.6224 1.623,-2.4336 1.623,-4.056 1.622,-2.4337 2.433,-6.4897 4.867,-8.9234 2.434,-2.4336 4.056,-4.8673 6.49,-7.3009 2.433,-1.6224 4.056,-4.0561 6.489,-4.0561 -1.622,0 -2.433,-1.6224 -2.433,-1.6224 -2.434,0 -4.056,0 -4.867,0 h -1.623 c -1.622,-1.6224 -1.622,-1.6224 0,-1.6224 2.434,-2.4337 4.867,-4.0561 7.301,-4.0561 2.434,-1.6224 6.49,-1.6224 8.923,-1.6224 4.868,0 9.735,1.6224 14.602,2.4336 0,-1.6224 0,-1.6224 0,-1.6224 0,-1.6224 0,-2.4337 -1.622,-2.4337 0,-1.6224 -1.623,-2.4336 -1.623,-2.4336 l -1.622,-1.6224 -1.622,-1.6224 v -1.6225 c 0,-1.6224 1.622,-1.6224 1.622,-1.6224 4.056,2.4336 7.301,4.0561 11.357,6.4897 2.434,1.6224 4.056,2.4336 4.867,4.0561 1.623,1.6224 2.434,1.6224 2.434,2.4336 1.622,1.6224 1.622,1.6224 2.434,1.6224 1.622,-1.6224 1.622,-2.4336 1.622,-4.056 1.622,-1.6225 1.622,-4.0561 1.622,-4.8673 0,-1.6224 1.623,-1.6224 1.623,0 4.056,2.4336 6.49,4.8673 8.923,8.9233 2.434,4.0561 4.867,6.4898 7.301,9.7346 4.867,7.3009 7.301,14.6018 9.735,21.9028 2.433,7.3009 4.867,16.2242 6.489,23.5247 1.623,4.057 1.623,8.924 0,12.169 0,1.622 0,1.622 0,2.433 -1.622,4.868 -1.622,9.735 -4.056,16.225 0,1.622 -1.622,1.622 -1.622,2.433 v 1.623 1.622 l -1.623,1.622 -1.622,2.434 -1.622,2.434 c -2.434,2.433 -4.057,4.867 -6.49,7.301 -4.056,4.867 -8.923,9.734 -14.602,13.79 -11.357,7.301 -23.525,12.169 -38.127,14.602 -14.602,1.623 -29.204,0 -42.994,-6.49 -4.056,-1.622 -6.49,-4.056 -9.735,-6.489 l -2.434,-1.623 c -1.622,-1.622 -1.622,-1.622 -2.433,-2.433 -1.623,-1.623 -4.056,-2.434 -4.867,-4.056 -6.49,-4.868 -11.357,-9.735 -16.225,-17.036 -4.867,-6.49 -8.927,-13.79 -11.357,-19.469 -2.43,-7.301 -4.87,-14.602 -6.49,-23.5252 -1.62,-19.4691 0.81,-35.6934 7.3,-50.2952 z"
       id="path10"
       inkscape:connector-curvature="0"
       style="fill:#000000;fill-opacity:1" />
    <path
       d="m 398.635,-16.5015 c 0,-7.6163 -6.175,-13.7906 -13.791,-13.7906 -7.616,0 -13.791,6.1743 -13.791,13.7906 0,7.61636 6.175,13.79064 13.791,13.79064 7.616,0 13.791,-6.17428 13.791,-13.79064 z m 610.845,64.8971 c -2.44,-7.3009 -6.49,-14.6019 -9.736,-21.0916 -4.867,-7.3009 -8.923,-13.7906 -14.602,-19.46909 -11.357,-12.1682 -24.336,-21.09151 -38.938,-28.39251 -14.602,-7.3009 -30.826,-11.357 -46.239,-12.1682 -16.225,-1.6224 -31.638,-1.6224 -46.24,2.4337 -16.224,4.056 -29.203,7.3009 -43.805,12.1682 -14.602,4.8673 -28.393,9.73454 -41.372,16.22425 -26.77,9.73456 -51.106,21.09155 -76.254,30.82615 -24.336,9.7345 -47.862,17.8467 -69.764,25.9588 -11.357,4.0561 -21.903,6.4897 -33.26,8.9233 4.056,-2.4336 7.301,-4.056 11.357,-6.4897 1.622,-1.6224 2.433,-2.4336 4.056,-2.4336 l 4.056,-2.4336 c 1.622,-1.6225 2.434,-2.4337 4.056,-2.4337 1.622,-1.6224 2.434,-2.4336 4.056,-4.0561 9.735,-8.9233 18.658,-18.6579 25.959,-29.2036 7.301,-11.35703 11.357,-23.52523 14.602,-36.5047 4.056,-13.7906 4.867,-26.77 4.867,-40.5606 0,-4.0561 0,-6.4897 0,-9.7346 0,-3.2448 0,-6.4897 -1.622,-9.7346 -1.623,-7.3009 -2.434,-13.7906 -4.056,-19.4691 -4.056,-13.7907 -9.735,-25.9587 -17.036,-36.5047 -9.734,-12.168 -19.469,-20.28 -31.637,-27.581 -6.49,-4.056 -11.357,-6.49 -18.658,-8.923 -6.49,-2.434 -13.791,-4.057 -19.469,-4.868 -5.679,-0.811 -13.791,-1.622 -19.469,-1.622 -6.49,0 -13.791,1.622 -19.47,2.433 -12.168,4.057 -24.336,8.924 -34.07,17.847 -9.735,7.301 -18.658,18.658 -22.714,30.826 -4.868,11.357 -6.49,25.959 -6.49,36.5049 4.056,45.4279 33.26,71.3867 58.407,81.93253 h 1.623 c 1.622,0 1.622,-1.62243 1.622,-1.62243 0,-2.4336 0,-4.0561 0,-6.4897 0,-1.6224 0,-2.4337 1.622,-4.0561 2.434,1.6224 4.868,2.4337 6.49,4.0561 2.434,1.6224 6.49,2.4336 8.924,4.0561 2.433,1.6224 6.489,2.4336 8.923,4.05603 1.622,1.62242 4.056,1.62242 4.867,1.62242 1.623,0 1.623,1.62243 2.434,1.62243 0.811,0 2.433,0 2.433,1.62243 1.623,0 1.623,0 2.434,-1.62243 1.623,-1.62243 1.623,-2.43364 0,-2.43364 l -2.434,-1.62244 -1.622,-1.6224 c -1.622,-1.6224 -1.622,-2.4337 -2.434,-2.4337 -1.622,-1.6224 -1.622,-2.4336 -1.622,-2.4336 0,0 0,0 0,-1.6224 6.49,-1.6225 11.357,-2.4337 17.035,-4.0561 4.057,-1.6224 6.49,-2.4336 9.735,-4.8673 4.056,-2.4336 6.49,-4.8673 7.301,-8.9233 0,-1.6224 0,-1.6224 0,-1.6224 0,-1.6225 -1.623,-2.4337 -2.434,-1.6225 -2.433,1.6225 -4.867,1.6225 -6.489,2.4337 -1.623,0 -1.623,0 -1.623,0 1.623,-1.6225 2.434,-2.4337 4.056,-4.0561 1.623,-1.6224 1.623,-1.6224 1.623,-2.4336 1.622,-1.6225 1.622,-1.6225 1.622,-2.4337 1.622,-1.6224 2.434,-2.4336 2.434,-4.8673 1.622,-1.6224 1.622,-1.6224 1.622,-2.4336 1.623,-1.6224 1.623,-1.6224 1.623,-2.4336 1.622,-1.6225 1.622,-4.0561 1.622,-4.8673 0,-2.4337 1.622,-4.0561 1.622,-4.8673 0,-0.8112 0,-4.0561 0,-4.8673 0,0 0,0 0,1.6224 0,1.6225 -1.622,1.6225 -1.622,2.4337 -1.622,1.6224 -2.434,4.056 -4.056,6.4897 -1.623,2.4336 -4.867,4.8673 -7.301,7.3009 -4.056,2.4336 -7.301,6.4897 -12.168,7.3009 -9.735,4.8673 -23.525,6.4897 -38.127,2.4337 -7.301,-0.8112 -14.602,-3.2449 -21.092,-8.1122 -6.489,-4.8672 -12.168,-11.357 -17.035,-18.6579 -2.434,-4.056 -4.868,-7.3009 -6.49,-12.1682 l -0.811,-2.4336 -1.623,-1.6224 c 0,-1.6225 -1.622,-2.4337 -1.622,-4.0561 0,-1.6224 -1.622,-2.4337 -1.622,-4.0561 0,-1.6224 -1.623,-2.4336 -1.623,-4.0561 -1.622,-8.9231 -1.622,-19.4691 2.434,-29.2041 4.056,-9.734 8.923,-19.469 16.224,-26.77 7.301,-7.301 17.035,-14.601 29.204,-18.657 6.489,-2.434 11.357,-4.057 17.035,-4.057 6.49,-1.622 12.168,0 18.658,1.623 6.49,1.622 12.168,2.434 18.658,4.867 6.49,2.434 11.357,4.867 17.035,8.923 9.735,6.49 19.47,16.225 26.771,25.959 7.3,9.735 12.168,21.903 16.224,34.071 1.622,6.49 2.433,12.1685 4.056,18.6582 0,4.0561 1.622,6.4897 1.622,9.7346 0,3.2448 0,6.4897 0,9.7345 -1.622,13.7907 -2.433,25.9589 -4.867,38.1271 -4.056,12.1682 -7.301,23.52516 -14.602,34.07094 -6.49,9.73456 -14.602,19.46916 -23.525,26.77006 -2.434,2.4336 -4.867,4.056 -7.301,4.8673 l -4.056,2.4336 c -1.622,1.6224 -2.434,1.6224 -4.056,2.4336 -4.867,4.0561 -9.735,4.8673 -16.224,7.301 -11.357,4.056 -21.903,6.4897 -33.26,7.3009 -11.357,1.6224 -21.903,1.6224 -31.637,0 -9.735,-1.6224 -19.47,-2.4337 -29.204,-4.8673 -17.036,-3.2448 -33.26,-12.1682 -46.239,-19.4691 -12.98,-7.3009 -23.525,-17.0355 -31.638,-25.9589 -13.79,-14.60179 -14.601,-21.9027 -16.224,-28.3924 -1.622,-4.8673 -6.49,-6.4897 -9.734,-4.8673 -4.057,2.4336 -4.057,7.3009 -1.623,11.357 4.056,4.05605 16.224,17.03547 21.903,24.3364 7.301,8.9233 18.658,18.6579 31.637,28.3925 13.791,8.9233 30.826,17.0354 50.295,23.5252 1.623,0 1.623,1.6224 2.434,1.6224 4.056,1.6224 7.301,2.4336 11.357,4.056 2.434,1.6225 4.867,1.6225 7.301,2.4337 1.622,1.6224 4.056,1.6224 4.867,1.6224 1.623,1.6224 4.056,1.6224 4.868,1.6224 6.489,1.6225 12.168,2.4337 18.657,2.4337 4.057,1.6224 7.301,1.6224 11.357,2.4336 11.357,1.6225 23.526,2.4337 36.505,2.4337 12.979,0 25.959,-1.6225 38.938,-2.4337 13.791,-1.6224 26.77,-4.8673 40.561,-7.3009 13.791,-2.4336 26.77,-4.8673 38.938,-4.8673 6.49,0 13.791,0 18.658,1.6224 4.056,0 6.49,1.6225 8.924,1.6225 1.622,0 4.056,1.6224 4.867,1.6224 1.622,0 4.056,1.6224 4.867,1.6224 4.867,1.6225 9.735,4.0561 14.602,6.4897 4.867,4.0561 8.923,6.4898 12.168,9.7346 4.056,4.0561 6.49,7.3009 8.923,12.1681 2.434,4.867 2.434,9.735 2.434,14.602 v 1.622 1.623 c 0,1.622 0,1.622 0,2.433 0,0.812 -1.622,2.434 -1.622,4.057 -1.623,2.433 -2.434,4.056 -2.434,6.489 -2.434,4.056 -6.49,6.49 -8.923,8.924 -6.49,4.056 -13.791,4.056 -18.658,4.056 -2.434,-1.623 -4.867,-1.623 -6.49,-2.434 -1.622,-1.622 -2.434,-2.434 -2.434,-4.056 -1.622,-2.434 -1.622,-2.434 -1.622,-2.434 0,0 0,-1.622 0,-2.433 0,-4.868 -4.056,-8.924 -8.923,-8.924 -4.868,0 -7.301,4.056 -8.924,8.924 0,4.056 4.056,8.923 8.924,13.79 2.433,1.623 4.056,2.434 7.301,4.056 2.433,1.623 6.489,1.623 8.923,1.623 6.49,0 14.602,-2.434 21.903,-7.301 2.433,-1.623 4.056,-2.434 4.867,-4.867 2.434,-1.623 4.056,-4.057 4.867,-4.868 1.623,-2.433 2.434,-4.867 4.056,-6.489 1.623,-1.623 1.623,-2.434 1.623,-4.056 0,-1.623 1.622,-2.434 1.622,-4.057 1.623,-4.867 1.623,-11.357 1.623,-17.035 -1.623,-6.49 -4.056,-12.1682 -7.301,-17.0355 -4.056,-4.8673 -8.924,-9.7346 -14.602,-13.7907 -6.49,-4.056 -12.168,-6.4897 -19.469,-7.3009 -2.434,-1.6224 -4.056,-1.6224 -4.868,-1.6224 -0.811,0 -4.056,-1.6224 -4.867,-1.6224 -4.056,0 -6.49,-1.6225 -9.734,-1.6225 -6.49,0 -13.791,0 -21.092,1.6225 -13.791,1.6224 -26.77,4.8672 -40.561,8.9233 -13.79,4.0561 -25.958,6.4897 -38.938,8.9234 -13.791,2.4336 -25.959,4.056 -38.127,4.056 -4.867,0 -8.923,0 -13.791,0 17.036,-2.4336 36.505,-6.4897 57.597,-11.357 21.902,-6.4897 45.428,-14.6018 69.764,-23.5251 24.336,-8.9234 50.295,-19.4692 77.065,-29.2037 13.791,-4.8673 26.77,-9.7346 40.561,-14.60188 13.791,-4.86728 28.392,-8.923346 41.372,-11.35699 14.602,-2.43364 28.392,-4.05606 42.994,-2.43364 14.602,1.62243 28.393,4.867284 41.372,11.35699 12.979,6.48972 24.336,14.60182 34.071,24.33642 4.867,4.8673 8.923,11.357 13.791,17.0355 l 1.622,2.4336 1.622,2.4337 1.623,2.4336 1.622,2.4336 c 2.434,4.0561 4.056,6.4897 4.868,9.7346 4.867,13.7906 7.303,26.77 6.493,40.5605 -3.249,8.112 -8.116,20.281 -16.228,31.637 -4.056,4.868 -8.923,9.735 -13.791,14.602 -1.622,1.623 -2.433,2.434 -4.056,4.056 -1.622,1.623 -1.622,1.623 -2.433,1.623 l -2.434,1.622 c -2.434,2.434 -4.867,4.056 -7.301,4.868 -11.357,6.489 -23.525,7.3 -35.693,6.489 -12.168,-0.811 -23.525,-4.867 -33.26,-11.357 -4.867,-4.056 -8.923,-6.489 -12.168,-11.357 -2.434,-2.433 -4.056,-4.867 -4.867,-6.489 l -1.623,-1.623 -1.622,-2.434 -1.623,-1.622 v -1.622 c 0,-1.623 -1.622,-1.623 -1.622,-2.434 -4.056,-9.735 -4.867,-19.469 -4.056,-29.204 2.433,-9.7342 6.489,-18.6576 11.357,-24.3361 2.433,-4.0561 6.489,-6.4897 8.923,-7.3009 4.056,-2.4337 7.301,-4.0561 9.735,-4.8673 7.301,-2.4336 14.601,-4.0561 21.091,-2.4336 12.168,1.6224 21.092,6.4897 26.77,9.7345 2.434,2.4337 4.868,4.0561 6.49,4.8673 1.622,0.8112 2.434,2.4337 4.056,1.6224 1.622,-1.6224 -1.622,-4.8672 -1.622,-6.4897 -1.623,-1.6224 -1.623,-2.4336 -1.623,-4.056 -1.622,-2.4337 -2.433,-6.4897 -4.867,-8.9234 -2.434,-2.4336 -4.056,-4.8673 -6.49,-7.3009 -2.433,-1.6224 -4.056,-4.0561 -6.49,-4.0561 1.623,0 2.434,-1.6224 2.434,-1.6224 2.434,0 4.056,0 4.867,0 h 1.623 c 1.622,-1.6224 1.622,-1.6224 0,-1.6224 -2.434,-2.4337 -4.867,-4.0561 -7.301,-4.0561 -2.434,-1.6224 -6.49,-1.6224 -8.923,-1.6224 -4.868,0 -9.735,1.6224 -14.602,2.4336 0,-1.6224 0,-1.6224 0,-1.6224 0,-1.6224 0,-2.4337 1.622,-2.4337 0,-1.6224 1.623,-2.4336 1.623,-2.4336 l 1.622,-1.6224 1.622,-1.6224 v -1.6225 c 0,-1.6224 -1.622,-1.6224 -1.622,-1.6224 -4.056,2.4336 -7.301,4.0561 -11.357,6.4897 -2.434,1.6224 -4.056,2.4336 -4.867,4.0561 -1.623,1.6224 -2.434,1.6224 -2.434,2.4336 -1.622,1.6224 -1.622,1.6224 -2.434,1.6224 -1.622,-1.6224 -1.622,-2.4336 -1.622,-4.056 -1.622,-1.6225 -1.622,-4.0561 -1.622,-4.8673 0,-1.6224 -1.623,-1.6224 -1.623,0 -4.056,2.4336 -6.49,4.8673 -8.923,8.9233 -2.434,4.0561 -4.867,6.4898 -7.301,9.7346 -4.867,7.3009 -7.301,14.6018 -9.735,21.9028 -2.433,7.3009 -4.867,16.2242 -6.489,23.5247 -1.623,4.057 -1.623,8.924 0,12.169 0,1.622 0,1.622 0,2.433 1.622,4.868 1.622,9.735 4.056,16.225 0,1.622 1.622,1.622 1.622,2.433 v 1.623 1.622 l 1.623,1.622 1.622,2.434 1.622,2.434 c 2.434,2.433 4.056,4.867 6.49,7.301 4.056,4.867 8.923,9.734 14.602,13.79 11.357,7.301 23.525,12.169 38.127,14.602 14.602,1.623 29.204,0 42.994,-6.49 4.056,-1.622 6.49,-4.056 9.735,-6.489 l 2.433,-1.623 c 1.623,-1.622 1.623,-1.622 2.434,-2.433 1.623,-1.623 4.056,-2.434 4.867,-4.056 6.49,-4.868 11.357,-9.735 16.225,-17.036 4.867,-6.49 8.927,-13.79 11.357,-19.469 2.43,-7.301 4.87,-14.602 6.49,-23.5252 1.62,-19.4691 -0.81,-35.6934 -7.3,-50.2952 z"
       id="path12"
       inkscape:connector-curvature="0"
       style="fill:#000000;fill-opacity:1" />
  </g>
</svg>
